<?xml version="1.0" encoding="UTF-8" standalone="no"?>
<!DOCTYPE svg PUBLIC "-//W3C//DTD SVG 1.1//EN" "http://www.w3.org/Graphics/SVG/1.1/DTD/svg11.dtd">
<svg width="100%" height="100%" viewBox="0 0 1016 200" version="1.1" xmlns="http://www.w3.org/2000/svg" xmlns:xlink="http://www.w3.org/1999/xlink" xml:space="preserve" xmlns:serif="http://www.serif.com/" style="fill-rule:evenodd;clip-rule:evenodd;stroke-linejoin:round;stroke-miterlimit:1.41421;">
    <g transform="matrix(1,0,0,1,-132,-300)">
        <g>
            <g transform="matrix(2.61506,0,0,2.61506,-583.223,-601.145)">
                <path d="M386.789,349.19L372.101,349.19L372.101,416.39L381.317,416.39L381.317,368.87L389.189,416.39L399.173,416.39L406.469,368.198L406.469,416.39L416.453,416.39L416.453,349.19L401.765,349.19L394.565,396.902L386.789,349.19Z" style="fill-rule:nonzero;"/>
                <path d="M423.653,349.19L423.653,400.358C423.653,411.11 429.029,417.254 439.397,417.254C449.765,417.254 455.141,411.11 455.141,400.358L455.141,349.19L445.157,349.19L445.157,401.03C445.157,405.83 443.045,407.558 439.685,407.558C436.325,407.558 434.213,405.83 434.213,401.03L434.213,349.19L423.653,349.19Z" style="fill-rule:nonzero;"/>
                <path d="M460.997,365.318C460.997,384.518 481.637,387.11 481.637,400.934C481.637,405.734 479.525,407.462 476.165,407.462C472.805,407.462 470.693,405.734 470.693,400.934L470.693,396.134L460.709,396.134L460.709,400.262C460.709,411.014 466.085,417.158 476.453,417.158C486.821,417.158 492.197,411.014 492.197,400.262C492.197,381.062 471.557,378.47 471.557,364.646C471.557,359.846 473.477,358.022 476.837,358.022C480.197,358.022 482.117,359.846 482.117,364.646L482.117,367.43L492.101,367.43L492.101,365.318C492.101,354.566 486.821,348.422 476.549,348.422C466.277,348.422 460.997,354.566 460.997,365.318Z" style="fill-rule:nonzero;"/>
                <rect x="498.245" y="349.19" width="10.56" height="67.2" style="fill-rule:nonzero;"/>
                <path d="M537.125,391.334L537.125,400.934C537.125,405.734 535.013,407.462 531.653,407.462C528.293,407.462 526.181,405.734 526.181,400.934L526.181,364.646C526.181,359.846 528.293,358.022 531.653,358.022C535.013,358.022 537.125,359.846 537.125,364.646L537.125,371.846L547.109,371.846L547.109,365.318C547.109,354.566 541.733,348.422 531.365,348.422C520.997,348.422 515.621,354.566 515.621,365.318L515.621,400.262C515.621,411.014 520.997,417.158 531.365,417.158C541.733,417.158 547.109,411.014 547.109,400.262L547.109,391.334L537.125,391.334Z" style="fill-rule:nonzero;"/>
                <path d="M579.077,416.39L579.077,412.358L557.957,412.358L557.957,349.19L553.541,349.19L553.541,416.39L579.077,416.39Z" style="fill-rule:nonzero;"/>
                <rect x="585.701" y="349.19" width="4.416" height="67.2" style="fill-rule:nonzero;"/>
                <path d="M601.829,356.486L622.853,416.39L627.749,416.39L627.749,349.19L623.717,349.19L623.717,405.926L603.557,349.19L597.797,349.19L597.797,416.39L601.829,416.39L601.829,356.486Z" style="fill-rule:nonzero;"/>
                <path d="M639.749,380.294L639.749,353.222L661.829,353.222L661.829,349.19L635.333,349.19L635.333,416.39L661.829,416.39L661.829,412.358L639.749,412.358L639.749,384.326L658.085,384.326L658.085,380.294L639.749,380.294Z" style="fill-rule:nonzero;"/>
            </g>
            <g transform="matrix(1.8,0,0,1.79939,-586.918,-426.701)">
                <path d="M399.677,470.526L399.677,459.237C399.769,440.188 410.497,421.452 427.068,411.61C435.482,406.612 445.175,403.908 455.054,403.861C455.173,403.861 455.292,403.861 455.411,403.861C467.168,403.917 478.847,407.839 488.268,414.859C502.039,425.121 510.703,441.732 510.787,459.237L510.788,459.412L510.788,492.749L510.788,492.751L510.787,498.412C510.705,506.974 503.344,514.884 494.228,514.971C490.479,514.984 486.737,515.261 483.32,514.119C476.786,511.933 471.967,505.408 471.899,498.412C471.882,492.785 471.882,487.158 471.899,481.531C471.983,472.958 479.335,465.001 488.557,464.972L499.676,464.972L499.676,459.273C499.584,440.175 486.044,421.971 467.192,416.629C452.093,412.351 434.899,416.902 423.686,428.248C415.574,436.456 410.806,447.904 410.788,459.42L410.788,464.972L422.006,464.972C430.578,465.054 438.478,472.393 438.565,481.531C438.583,487.158 438.583,492.785 438.565,498.412C438.483,506.977 431.121,514.884 422.006,514.971C418.184,514.984 414.368,515.259 410.904,514.053C404.428,511.797 399.699,505.282 399.677,498.314L399.677,470.527L399.677,470.526ZM410.788,492.749L410.767,492.963L410.789,498.412C410.853,501.263 413.321,503.813 416.272,503.86C418.791,503.884 421.509,504.317 423.684,503.559C425.826,502.813 427.417,500.704 427.454,498.376C427.508,492.762 427.544,487.146 427.453,481.531C427.39,478.691 424.921,476.131 421.97,476.083L410.788,476.083L410.788,492.749ZM499.677,492.749L499.677,476.083L488.574,476.083C485.674,476.114 483.039,478.608 483.01,481.603C482.993,487.206 482.921,492.81 483.011,498.412C483.075,501.246 485.543,503.813 488.494,503.86C491.804,503.892 495.494,504.464 497.761,502.474C498.948,501.432 499.671,499.889 499.677,498.296L499.677,492.749Z"/>
            </g>
        </g>
    </g>
</svg>
